<?xml version="1.0" encoding="UTF-8" standalone="no"?>
<!DOCTYPE svg PUBLIC "-//W3C//DTD SVG 1.1//EN"
 "http://www.w3.org/Graphics/SVG/1.1/DTD/svg11.dtd">
<!-- Generated by graphviz version 2.38.0 (20140413.2041)
 -->
<!-- Title: models_diagram Pages: 1 -->
<svg width="748pt" height="274pt"
 viewBox="0.00 0.00 747.55 274.00" xmlns="http://www.w3.org/2000/svg" xmlns:xlink="http://www.w3.org/1999/xlink">
<g id="graph0" class="graph" transform="scale(1 1) rotate(0) translate(4 270)">
<title>models_diagram</title>
<polygon fill="none" stroke="none" points="-4,4 -4,-270 743.55,-270 743.55,4 -4,4"/>
<!-- _diagram_info -->
<g id="node1" class="node"><title>_diagram_info</title>
<text text-anchor="start" x="8" y="-237.6" font-family="Times,serif" font-size="13.00">Models diagram</text>
<text text-anchor="start" x="8" y="-224.6" font-family="Times,serif" font-size="13.00">Date: Jul 11 2016 &#45; 19:29</text>
<text text-anchor="start" x="8" y="-211.6" font-family="Times,serif" font-size="13.00">Migration version: 20160708022506</text>
<text text-anchor="start" x="8" y="-198.6" font-family="Times,serif" font-size="13.00">Generated by RailRoady 1.5.1</text>
<text text-anchor="start" x="8" y="-185.6" font-family="Times,serif" font-size="13.00">http://railroady.prestonlee.com</text>
</g>
<!-- Inventario -->
<g id="node2" class="node"><title>Inventario</title>
<path fill="none" stroke="black" d="M237.825,-0.5C237.825,-0.5 461.55,-0.5 461.55,-0.5 467.55,-0.5 473.55,-6.5 473.55,-12.5 473.55,-12.5 473.55,-116.5 473.55,-116.5 473.55,-122.5 467.55,-128.5 461.55,-128.5 461.55,-128.5 237.825,-128.5 237.825,-128.5 231.825,-128.5 225.825,-122.5 225.825,-116.5 225.825,-116.5 225.825,-12.5 225.825,-12.5 225.825,-6.5 231.825,-0.5 237.825,-0.5"/>
<text text-anchor="middle" x="349.688" y="-113.3" font-family="Times,serif" font-size="14.00">Inventario</text>
<polyline fill="none" stroke="black" points="225.825,-106.5 473.55,-106.5 "/>
<text text-anchor="start" x="233.825" y="-91.3" font-family="Times,serif" font-size="14.00">descripcion :character varying</text>
<text text-anchor="start" x="233.825" y="-77.3" font-family="Times,serif" font-size="14.00">serie :integer</text>
<text text-anchor="start" x="233.825" y="-63.3" font-family="Times,serif" font-size="14.00">tamano :integer</text>
<text text-anchor="start" x="233.825" y="-49.3" font-family="Times,serif" font-size="14.00">id :integer</text>
<text text-anchor="start" x="233.825" y="-35.3" font-family="Times,serif" font-size="14.00">created_at :timestamp without time zone</text>
<text text-anchor="start" x="233.825" y="-21.3" font-family="Times,serif" font-size="14.00">updated_at :timestamp without time zone</text>
<text text-anchor="start" x="233.825" y="-7.3" font-family="Times,serif" font-size="14.00">operacion_id :integer</text>
</g>
<!-- Operacion -->
<g id="node3" class="node"><title>Operacion</title>
<path fill="none" stroke="black" d="M237.825,-172.5C237.825,-172.5 461.55,-172.5 461.55,-172.5 467.55,-172.5 473.55,-178.5 473.55,-184.5 473.55,-184.5 473.55,-246.5 473.55,-246.5 473.55,-252.5 467.55,-258.5 461.55,-258.5 461.55,-258.5 237.825,-258.5 237.825,-258.5 231.825,-258.5 225.825,-252.5 225.825,-246.5 225.825,-246.5 225.825,-184.5 225.825,-184.5 225.825,-178.5 231.825,-172.5 237.825,-172.5"/>
<text text-anchor="middle" x="349.688" y="-243.3" font-family="Times,serif" font-size="14.00">Operacion</text>
<polyline fill="none" stroke="black" points="225.825,-236.5 473.55,-236.5 "/>
<text text-anchor="start" x="233.825" y="-221.3" font-family="Times,serif" font-size="14.00">id :integer</text>
<text text-anchor="start" x="233.825" y="-207.3" font-family="Times,serif" font-size="14.00">trabajar_id :integer</text>
<text text-anchor="start" x="233.825" y="-193.3" font-family="Times,serif" font-size="14.00">created_at :timestamp without time zone</text>
<text text-anchor="start" x="233.825" y="-179.3" font-family="Times,serif" font-size="14.00">updated_at :timestamp without time zone</text>
</g>
<!-- Operacion&#45;&gt;Inventario -->
<g id="edge1" class="edge"><title>Operacion&#45;&gt;Inventario</title>
<path fill="none" stroke="#3d2eb4" d="M349.688,-164.104C349.688,-155.327 349.688,-146.051 349.688,-136.838"/>
<ellipse fill="none" stroke="#3d2eb4" cx="349.688" cy="-168.201" rx="4" ry="4"/>
<ellipse fill="#3d2eb4" stroke="#3d2eb4" cx="349.688" cy="-132.774" rx="4" ry="4"/>
</g>
<!-- Trabajar -->
<g id="node4" class="node"><title>Trabajar</title>
<path fill="none" stroke="black" d="M503.825,-165.5C503.825,-165.5 727.55,-165.5 727.55,-165.5 733.55,-165.5 739.55,-171.5 739.55,-177.5 739.55,-177.5 739.55,-253.5 739.55,-253.5 739.55,-259.5 733.55,-265.5 727.55,-265.5 727.55,-265.5 503.825,-265.5 503.825,-265.5 497.825,-265.5 491.825,-259.5 491.825,-253.5 491.825,-253.5 491.825,-177.5 491.825,-177.5 491.825,-171.5 497.825,-165.5 503.825,-165.5"/>
<text text-anchor="middle" x="615.688" y="-250.3" font-family="Times,serif" font-size="14.00">Trabajar</text>
<polyline fill="none" stroke="black" points="491.825,-243.5 739.55,-243.5 "/>
<text text-anchor="start" x="499.825" y="-228.3" font-family="Times,serif" font-size="14.00">id :integer</text>
<text text-anchor="start" x="499.825" y="-214.3" font-family="Times,serif" font-size="14.00">nombre :character varying</text>
<text text-anchor="start" x="499.825" y="-200.3" font-family="Times,serif" font-size="14.00">email :character varying</text>
<text text-anchor="start" x="499.825" y="-186.3" font-family="Times,serif" font-size="14.00">created_at :timestamp without time zone</text>
<text text-anchor="start" x="499.825" y="-172.3" font-family="Times,serif" font-size="14.00">updated_at :timestamp without time zone</text>
</g>
<!-- Operacione -->
<g id="node5" class="node"><title>Operacione</title>
<ellipse fill="none" stroke="black" cx="615.688" cy="-64.5" rx="50.7224" ry="18"/>
<text text-anchor="middle" x="615.688" y="-60.3" font-family="Times,serif" font-size="14.00">Operacione</text>
</g>
<!-- Trabajar&#45;&gt;Operacione -->
<g id="edge2" class="edge"><title>Trabajar&#45;&gt;Operacione</title>
<path fill="none" stroke="#e1d575" d="M615.688,-157.157C615.688,-135.02 615.688,-110.745 615.688,-92.7416"/>
<ellipse fill="none" stroke="#e1d575" cx="615.688" cy="-161.299" rx="4" ry="4"/>
<polygon fill="#e1d575" stroke="#e1d575" points="615.688,-92.674 620.188,-82.674 615.688,-87.674 615.688,-82.674 615.688,-82.674 615.688,-82.674 615.688,-87.674 611.188,-82.6741 615.688,-92.674 615.688,-92.674"/>
</g>
</g>
</svg>
