<?xml version="1.0" encoding="UTF-8" standalone="no"?>
<!DOCTYPE svg PUBLIC "-//W3C//DTD SVG 1.1//EN"
 "http://www.w3.org/Graphics/SVG/1.1/DTD/svg11.dtd">
<!-- Generated by graphviz version 2.38.0 (20140413.2041)
 -->
<!-- Title: models_diagram Pages: 1 -->
<svg width="447pt" height="153pt"
 viewBox="0.00 0.00 446.55 153.00" xmlns="http://www.w3.org/2000/svg" xmlns:xlink="http://www.w3.org/1999/xlink">
<g id="graph0" class="graph" transform="scale(1 1) rotate(0) translate(4 149)">
<title>models_diagram</title>
<polygon fill="none" stroke="none" points="-4,4 -4,-149 442.549,-149 442.549,4 -4,4"/>
<!-- _diagram_info -->
<g id="node1" class="node"><title>_diagram_info</title>
<text text-anchor="start" x="8" y="-130.6" font-family="Times,serif" font-size="13.00">Models diagram</text>
<text text-anchor="start" x="8" y="-117.6" font-family="Times,serif" font-size="13.00">Date: Jul 11 2016 &#45; 19:29</text>
<text text-anchor="start" x="8" y="-104.6" font-family="Times,serif" font-size="13.00">Migration version: 20160708022506</text>
<text text-anchor="start" x="8" y="-91.6" font-family="Times,serif" font-size="13.00">Generated by RailRoady 1.5.1</text>
<text text-anchor="start" x="8" y="-78.6" font-family="Times,serif" font-size="13.00">http://railroady.prestonlee.com</text>
</g>
<!-- Inventario -->
<g id="node2" class="node"><title>Inventario</title>
<ellipse fill="none" stroke="black" cx="272.688" cy="-18" rx="46.3959" ry="18"/>
<text text-anchor="middle" x="272.688" y="-13.8" font-family="Times,serif" font-size="14.00">Inventario</text>
</g>
<!-- Operacion -->
<g id="node3" class="node"><title>Operacion</title>
<ellipse fill="none" stroke="black" cx="272.688" cy="-108.5" rx="46.8719" ry="18"/>
<text text-anchor="middle" x="272.688" y="-104.3" font-family="Times,serif" font-size="14.00">Operacion</text>
</g>
<!-- Operacion&#45;&gt;Inventario -->
<g id="edge1" class="edge"><title>Operacion&#45;&gt;Inventario</title>
<path fill="none" stroke="#397682" d="M272.688,-82.189C272.688,-70.2772 272.688,-56.1086 272.688,-44.2097"/>
<ellipse fill="none" stroke="#397682" cx="272.688" cy="-86.4363" rx="4" ry="4"/>
<ellipse fill="#397682" stroke="#397682" cx="272.688" cy="-40.0113" rx="4" ry="4"/>
</g>
<!-- Trabajar -->
<g id="node4" class="node"><title>Trabajar</title>
<ellipse fill="none" stroke="black" cx="387.688" cy="-108.5" rx="39.994" ry="18"/>
<text text-anchor="middle" x="387.688" y="-104.3" font-family="Times,serif" font-size="14.00">Trabajar</text>
</g>
<!-- Operacione -->
<g id="node5" class="node"><title>Operacione</title>
<ellipse fill="none" stroke="black" cx="387.688" cy="-18" rx="50.7224" ry="18"/>
<text text-anchor="middle" x="387.688" y="-13.8" font-family="Times,serif" font-size="14.00">Operacione</text>
</g>
<!-- Trabajar&#45;&gt;Operacione -->
<g id="edge2" class="edge"><title>Trabajar&#45;&gt;Operacione</title>
<path fill="none" stroke="#7a561f" d="M387.688,-82.189C387.688,-70.9711 387.688,-57.7517 387.688,-46.3113"/>
<ellipse fill="none" stroke="#7a561f" cx="387.688" cy="-86.4363" rx="4" ry="4"/>
<polygon fill="#7a561f" stroke="#7a561f" points="387.688,-46.0113 392.188,-36.0113 387.688,-41.0113 387.688,-36.0113 387.688,-36.0113 387.688,-36.0113 387.688,-41.0113 383.188,-36.0113 387.688,-46.0113 387.688,-46.0113"/>
</g>
</g>
</svg>
